<svg id="Capa_1" enable-background="new 0 0 510 510" height="512" viewBox="0 0 510 510" width="512" xmlns="http://www.w3.org/2000/svg"><path d="m504.92 215.33-69.44-61.22v-70.11c0-8.28-6.72-15-15-15h-81.55l-74.01-65.25c-5.67-5-14.17-5-19.84 0l-74.01 65.25h-81.55c-8.28 0-15 6.72-15 15v70.11l-69.44 61.22c-3.076 3.061-5.08 6.174-5.08 11.25v268.42c0 8.11 6.585 15 15 15h480c8.396 0 15-6.838 15-15v-268.42c0-4.913-2.033-8.218-5.08-11.25zm-24.92 244.89-128.36-121.13c3.599-2.374 126.234-83.248 128.36-84.65zm-440.36-235.36c18.255-16.098 10.281-9.068 34.88-30.75v53.75c-19.785-13.038-24.303-16.029-34.88-23zm64.88-125.86h300.96v168.65c-118.724 78.303-100.037 65.979-150.48 99.24-51.553-33.993-117.351-77.391-150.48-99.24 0-65.259 0-111.668 0-168.65zm150.48-64 38.57 34h-77.14zm215.36 189.86c-10.409 6.86-15.442 10.191-34.88 23 0-6.321 0-47.383 0-53.75 24.598 21.682 16.625 14.653 34.88 30.75zm-440.36 29.58c.024.016 125.119 82.512 128.36 84.65l-128.36 121.13zm154.09 101.62 62.65 41.32c5.029 3.306 11.49 3.307 16.52 0l62.65-41.32 131.34 123.94h-404.5z"/><path d="m186.43 187.59h137.14c8.28 0 15-6.72 15-15 0-8.29-6.72-15-15-15h-137.14c-8.28 0-15 6.71-15 15 0 8.28 6.72 15 15 15z"/><path d="m186.43 254.83h137.14c8.334 0 15-6.776 15-15 0-8.339-6.768-15-15-15h-137.14c-8.241 0-15 6.671-15 15 0 8.226 6.668 15 15 15z"/></svg>